<svg width="206" height="204" viewBox="0 0 206 204" fill="none" xmlns="http://www.w3.org/2000/svg">
<path d="M61.1851 47.2194C60.0442 31.8538 78.9652 23.3058 89.4973 34.8063L89.4945 34.8097L114.71 62.3549L148.617 46.569C163.004 39.8712 177.386 55.5986 169.621 69.5064L169.622 69.5068L151.304 102.323L176.528 129.877L176.528 129.878L177.013 130.43C186.726 141.947 176.863 159.668 161.99 157.333L161.266 157.203L124.728 149.928L106.415 182.74L106.414 182.74C98.6372 196.668 77.7842 192.5 75.9793 176.688L71.7131 139.379L35.1613 132.113C19.672 129.032 17.2267 107.746 31.6139 101.048L65.5209 85.262L61.255 47.956L61.1851 47.2194Z" fill="#DAFF02" stroke="black" stroke-width="5.58849"/>
</svg>
