<svg width="208" height="183" viewBox="0 0 208 183" fill="none" xmlns="http://www.w3.org/2000/svg">
<g clip-path="url(#clip0_136_1113)">
<path d="M198.408 79.2909C203.39 60.2178 191.967 40.7187 172.894 35.7366L70.6159 9.02054C51.5428 4.03845 32.0437 15.4606 27.0616 34.5338C22.0795 53.6069 33.5017 73.106 52.5748 78.0881C33.5017 73.106 14.0026 84.5281 9.02053 103.601C4.03844 122.674 15.4606 142.174 34.5338 147.156L136.812 173.872C155.885 178.854 175.384 167.432 180.366 148.358C185.349 129.285 173.926 109.786 154.853 104.804C173.926 109.786 193.425 98.3641 198.408 79.2909Z" fill="#DAFF02"/>
</g>
<defs>
<clipPath id="clip0_136_1113">
<rect width="177.095" height="142.77" fill="white" transform="translate(36.0822) rotate(14.6391)"/>
</clipPath>
</defs>
</svg>
