<svg width="152" height="152" viewBox="0 0 152 152" fill="none" xmlns="http://www.w3.org/2000/svg">
<g clip-path="url(#clip0_138_303)">
<path d="M86.0332 -1.35742V27.3926L97.7725 2.52246L98.3525 1.2959L99.5791 1.87402L115.275 9.28027L116.503 9.85938L115.924 11.0869L106.275 31.5352L122.645 15.167L123.604 14.208L124.563 15.167L136.841 27.4355L137.802 28.3955L136.841 29.3555L116.535 49.6543L144.009 38.8584L145.271 38.3623L145.769 39.625L152.118 55.7754L152.614 57.0391L151.352 57.5352L129.911 65.9668H153.357V86.0332H128.547L150.67 94.7324L151.933 95.2295L151.436 96.4922L145.086 112.644L144.59 113.906L143.327 113.41L117.419 103.229L136.841 122.645L137.801 123.604L123.604 137.801L122.645 136.841L114.119 128.312L119.627 139.988L120.205 141.215L118.979 141.794L103.282 149.208L102.055 149.787L101.476 148.56L86.0332 115.824V153.357H65.9668V116.961L51.0605 148.56L50.4814 149.787L49.2529 149.208L33.5576 141.794L32.3311 141.215L32.9092 139.988L38.8945 127.296L29.3555 136.841L28.3955 137.802L27.4355 136.841L15.167 124.563L14.208 123.604L15.167 122.645L34.2334 103.577L9.8916 113.142L8.62793 113.638L8.13184 112.375L1.78223 96.2246L1.28516 94.9609L2.54883 94.4648L23.9961 86.0332H-1.35742V65.9668H22.626L1.86621 57.8027L0.603516 57.3066L1.09961 56.0439L7.4502 39.8926L7.94629 38.6299L9.20898 39.126L35.1172 49.3125L15.167 29.3555L14.207 28.3955L15.167 27.4365L27.4365 15.167L28.3955 14.207L29.3555 15.167L46.748 32.5527L36.6201 11.0869L36.041 9.85938L37.2686 9.28027L52.9648 1.87402L54.1924 1.29492L54.7715 2.52246L65.9668 26.2529V-1.35742H86.0332Z" fill="#E87721" stroke="black" stroke-width="2.71429"/>
</g>
<defs>
<clipPath id="clip0_138_303">
<rect width="152" height="152" fill="white"/>
</clipPath>
</defs>
</svg>
