<svg width="131" height="115" viewBox="0 0 131 115" fill="none" xmlns="http://www.w3.org/2000/svg">
<path d="M44.0443 6.62606L108.203 23.385C119.633 26.3706 126.478 38.0559 123.493 49.486C120.554 60.7375 109.185 67.5462 97.9281 64.9086L97.3916 64.7755L96.8861 66.7106C108.316 69.6962 115.161 81.3816 112.176 92.8116C109.19 104.242 97.5045 111.088 86.0743 108.102L21.9154 91.3432C10.4853 88.3575 3.64054 76.6713 6.6262 65.2412C9.61201 53.8112 21.2972 46.9661 32.7273 49.9517L33.2327 48.0166L32.7006 47.8706C21.5912 44.6662 15.0042 33.1672 17.9433 21.9155C20.929 10.4855 32.6142 3.64048 44.0443 6.62606Z" fill="#685BC7" stroke="black" stroke-width="2"/>
</svg>
