<svg width="112" height="112" viewBox="0 0 112 112" fill="none" xmlns="http://www.w3.org/2000/svg">
<path d="M63.3936 -1V20.1807L72.043 1.8584L72.4697 0.954102L73.374 1.38086L84.9395 6.83789L85.8438 7.26465L85.417 8.16895L78.3076 23.2373L91.0762 10.4688L91.7832 11.1758L100.83 20.2158L101.538 20.9229L100.83 21.6309L85.8682 36.5869L106.111 28.6328L107.042 28.2666L107.408 29.1973L112.087 41.0977L112.453 42.0283L111.522 42.3945L95.7246 48.6064H113V63.3936H94.7197L111.02 69.8027L111.95 70.1689L111.584 71.0996L106.905 83L106.54 83.9307L105.609 83.5654L86.5195 76.0635L100.83 90.3691L101.538 91.0762L91.0762 101.538L90.3691 100.83L84.0869 94.5449L88.1455 103.149L88.5723 104.053L87.6689 104.479L76.1025 109.942L75.1982 110.37L74.7715 109.465L63.3936 85.3457V113H48.6064V86.1836L37.623 109.465L37.1963 110.37L36.292 109.942L24.7266 104.479L23.8223 104.053L24.249 103.149L28.6582 93.7979L21.6309 100.83L20.9229 101.538L20.2158 100.83L11.1758 91.7832L10.4688 91.0762L11.1758 90.3691L25.2236 76.3203L7.28809 83.3672L6.35742 83.7334L5.99219 82.8027L1.31348 70.9023L0.947266 69.9717L1.87793 69.6055L17.6807 63.3936H-1V48.6064H16.6699L1.375 42.5918L0.444336 42.2256L0.810547 41.2949L5.48926 29.3945L5.85547 28.4639L6.78613 28.8301L25.876 36.3359L11.1758 21.6299L10.4688 20.9229L20.9229 10.4688L21.6299 11.1758L34.4463 23.9873L26.9834 8.16895L26.5566 7.26465L27.4609 6.83789L39.0264 1.38086L39.9307 0.954102L40.3574 1.85938L48.6064 19.3418V-1H63.3936Z" fill="#FE572A" stroke="black" stroke-width="2"/>
</svg>
