<svg width="205" height="203" viewBox="0 0 205 203" fill="none" xmlns="http://www.w3.org/2000/svg">
<path d="M60.1851 46.5904C59.0442 31.2248 77.9652 22.6768 88.4973 34.1772L88.4945 34.1807L113.71 61.7259L147.617 45.94C162.004 39.2422 176.386 54.9696 168.621 68.8773L168.622 68.8778L150.304 101.694L175.528 129.248L175.528 129.249L176.013 129.801C185.726 141.318 175.863 159.039 160.99 156.704L160.266 156.574L123.728 149.299L105.415 182.111L105.414 182.111C97.6372 196.039 76.7842 191.871 74.9793 176.059L70.7131 138.75L34.1613 131.484C18.672 128.403 16.2267 107.117 30.6139 100.419L64.5209 84.6329L60.255 47.3269L60.1851 46.5904Z" fill="#FFCF57" stroke="black" stroke-width="5.58849"/>
</svg>
